<?xml version="1.0" ?><svg xmlns="http://www.w3.org/2000/svg" xmlns:xlink="http://www.w3.org/1999/xlink"><symbol viewBox="0 0 128 128" id="arrow" xmlns="http://www.w3.org/2000/svg"><path d="M64 0a64 64 0 1064 64A64.07 64.07 0 0064 0zm0 122a58 58 0 1158-58 58.07 58.07 0 01-58 58z"/><path d="M74.12 35.88a3 3 0 00-4.24 0l-26 26a3 3 0 000 4.24l26 26a3 3 0 004.24-4.24L50.24 64l23.88-23.88a3 3 0 000-4.24z"/></symbol><symbol viewBox="0 0 256 256" id="arrow-slide" xmlns="http://www.w3.org/2000/svg"><path d="M224 207.994v-160a16.016 16.016 0 00-16-16H48a16.016 16.016 0 00-16 16v160a16.016 16.016 0 0016 16h160a16.016 16.016 0 0016-16zm-107.719-40.39L82.354 133.66a8.024 8.024 0 010-11.332L116.28 88.4a8 8 0 0111.313 11.313l-20.281 20.281H168a8 8 0 110 16h-60.692l20.286 20.297a8 8 0 01-11.313 11.313z"/></symbol><symbol viewBox="0 0 24 24" fill="none" stroke-width="2" stroke-linecap="round" stroke-linejoin="round" class="cfeather cfeather-arrow-right" id="arrow-small" xmlns="http://www.w3.org/2000/svg"><path d="M5 12h14M12 5l7 7-7 7"/></symbol><symbol viewBox="0 0 64 64" id="timer" xmlns="http://www.w3.org/2000/svg"><defs><style>.dcls-1{fill:#35353d}</style></defs><g id="dLayer_2" data-name="Layer 2"><g id="dLayer_1-2" data-name="Layer 1"><path class="dcls-1" d="M32 0a32 32 0 1032 32A32 32 0 0032 0zm0 58.67A26.67 26.67 0 1158.67 32 26.72 26.72 0 0132 58.67z"/><path class="dcls-1" d="M43.55 34.67l-7.1-5.34L34.67 28V13.33a2.67 2.67 0 00-5.34 0v16a2.64 2.64 0 00.08.62 2.25 2.25 0 00.22.56 1.66 1.66 0 00.29.48s0 .08.08.1a2.44 2.44 0 00.37.35l.11.08 4.16 3.12 6.4 4.8a2.59 2.59 0 001.6.53 2.67 2.67 0 001.6-4.8z"/></g></g></symbol><symbol viewBox="0 0 490 490" id="warning" xmlns="http://www.w3.org/2000/svg"><path d="M67.375 291.55l-33.687 71.739 84.219 9.157 4.594 85.505 78.094-36.643L252.656 490l45.937-68.692 71.969 35.111 6.125-85.49 84.219-1.531-30.625-70.223L490 245.766l-64.313-51.894 41.344-71.739-87.281-7.626-7.656-83.958-73.5 35.112L248.063 0l-47.469 67.161-76.563-39.69-4.594 87.021-85.75 4.578 32.156 82.427L0 241.187l67.375 50.363zm26.996-101.185l-16.767-42.982 43.457-2.327 27.501-1.47 1.455-27.501 2.082-39.567 34.392 17.824 23.704 12.281 15.404-21.805 23.52-33.274 25.204 32.754 15.113 19.631 22.356-10.673 33.795-16.139 3.66 40.134 2.328 25.495 25.511 2.236 39.43 3.445-17.364 30.135-13.077 22.678 20.381 16.446 36.275 29.262-32.861 29.4-16.507 14.761 8.851 20.304 12.296 28.19-38.373.689-27.991.505-2.006 27.93-2.879 40.272-31.238-15.236-24.025-11.714-14.853 22.218-22.035 32.953-26.092-34.438-14.976-19.753-22.448 10.535-36.949 17.334-2.159-40.103-1.393-25.985-25.878-2.818-41.573-4.502 15.45-32.922 10.612-22.601-19.998-14.945L54.79 243.9l26.858-16.185 22.096-13.322-9.373-24.028z"/><path d="M261.078 275.916l6.156-126.711h-44.468l6.431 126.711zM245.138 340.795c15.098 0 24.898-10.918 24.898-25.449-.291-14.838-10.076-25.449-24.898-25.449s-25.174 10.612-25.174 25.449c0 14.531 10.06 25.449 25.174 25.449z"/></symbol></svg>